# xmcd
#
# Track frame offsets: 
#        150
#        13225
#        23294
#        35467
#        46195
#        57856
#        69297
#        81427
#        96792
#        107815
#        116035
#        126932
#        138571
#        152643
#        166749
#        179628
#
# Disc length: 2518 seconds
#
# Revision: 0
# Processed by: cddbd v1.5.2PL0 Copyright (c) Steve Scherf et al.
# Submitted via: ExactAudioCopy v1.1
#
DISCID=d009d410
DTITLE=Lonnie Lester - The Story Of Lonnie Lester
DYEAR=1969
DGENRE=Funk
TTITLE0=So this is love
TTITLE1=The meanest man in town
TTITLE2=Jay walk
TTITLE3=You can't go
TTITLE4=You choose
TTITLE5=Git down
TTITLE6=Ain't that a shame
TTITLE7=I know (Nu-tone)
TTITLE8=Power Structure Pt.1
TTITLE9=Power Structure Pt.2
TTITLE10=Can't Let You Go Pt.1
TTITLE11=Can't Let You Go Pt.2
TTITLE12=I have never been blue
TTITLE13=I know (B&G)
TTITLE14=So this is love 2nd
TTITLE15=The meanest man in town 2nd
EXTD=
EXTT0=
EXTT1=
EXTT2=
EXTT3=
EXTT4=
EXTT5=
EXTT6=
EXTT7=
EXTT8=
EXTT9=
EXTT10=
EXTT11=
EXTT12=
EXTT13=
EXTT14=
EXTT15=
PLAYORDER=
